<?xml version="1.0" encoding="utf-8"?>
<svg viewBox="252.85 560.82 80.56 82.83" xmlns="http://www.w3.org/2000/svg">
  <defs>
    <style type="text/css">
	.st0{fill:#3EB4E4;}
	.st1{font-family:'Helvetica';}
	.st2{font-size:14px;}
	.st3{fill:#FFFFFF;}
	.st4{fill:none;stroke:#000000;stroke-width:0.5;stroke-miterlimit:10;}
</style>
  </defs>
  <g>
    <path class="st3" d="M333.41,601.1c0-7.83-2.24-15.13-6.11-21.32c-2.34-3.75-5.28-7.09-8.69-9.88c-0.94,3.99-2.78,7.63-5.31,10.68 c-4.81,5.81-12.07,9.51-20.17,9.51c-8.11,0-15.37-3.71-20.17-9.51c-2.53-3.06-4.37-6.7-5.31-10.68c-3.41,2.79-6.35,6.13-8.69,9.88 c-3.86,6.18-6.11,13.49-6.11,21.32c0,16.55,9.98,30.76,24.25,36.96c-0.19-1-0.29-2.03-0.29-3.08c0-3.17,0.91-6.14,2.49-8.65 c-8.9-4.9-14.94-14.37-14.94-25.23c0-3.76,0.73-7.35,2.05-10.64c6.83,6.88,16.29,11.14,26.74,11.14 c10.46,0,19.91-4.26,26.74-11.14c1.32,3.29,2.05,6.88,2.05,10.64c0,10.86-6.04,20.33-14.94,25.23c1.57,2.51,2.49,5.47,2.49,8.65 c0,1.05-0.1,2.08-0.29,3.08C323.43,631.85,333.41,617.64,333.41,601.1z"/>
  </g>
  <g>
    <circle class="st0" cx="293.13" cy="634.98" r="8.67"/>
    <g>
      <path class="st0" d="M275.95,564.66c0.39,9.15,7.93,16.45,17.18,16.45c9.25,0,16.79-7.3,17.18-16.45 c-5.21-2.46-11.03-3.84-17.18-3.84C286.98,560.81,281.16,562.2,275.95,564.66z"/>
    </g>
  </g>
</svg>